<svg xmlns="http://www.w3.org/2000/svg" width="58.637" height="58.637" viewBox="0 0 58.637 58.637">
    <defs>
        <style>
            .cls-1{fill:#66c130}
        </style>
    </defs>
    <path id="bus" d="M55.889 14.659h-.916v-5.5C54.973 4.031 43.612 0 29.319 0S3.665 4.031 3.665 9.162v5.5h-.916A2.749 2.749 0 0 0 0 17.408v9.162a2.749 2.749 0 0 0 2.749 2.749h.916v18.324a3.665 3.665 0 0 0 3.665 3.665v3.665a3.665 3.665 0 0 0 3.665 3.665h3.665a3.665 3.665 0 0 0 3.665-3.665v-3.665h21.988v3.665a3.665 3.665 0 0 0 3.665 3.665h3.665a3.665 3.665 0 0 0 3.665-3.665v-3.665h.733a2.891 2.891 0 0 0 2.932-2.932V29.319h.916a2.749 2.749 0 0 0 2.749-2.749v-9.162a2.749 2.749 0 0 0-2.749-2.749zM12.827 45.811a3.665 3.665 0 1 1 3.665-3.665 3.665 3.665 0 0 1-3.665 3.665zm1.832-12.827a3.665 3.665 0 0 1-3.665-3.665v-14.66a3.665 3.665 0 0 1 3.665-3.665h29.319a3.665 3.665 0 0 1 3.665 3.665v14.66a3.665 3.665 0 0 1-3.665 3.665zm31.152 12.827a3.665 3.665 0 1 1 3.665-3.665 3.665 3.665 0 0 1-3.665 3.665z" class="cls-1"/>
</svg>
