<svg xmlns="http://www.w3.org/2000/svg" width="10.678" height="10.676" viewBox="0 0 10.678 10.676">
    <path d="M5.34 2.6a2.737 2.737 0 1 0 2.737 2.738A2.733 2.733 0 0 0 5.34 2.6zm0 4.517a1.779 1.779 0 1 1 1.78-1.779 1.783 1.783 0 0 1-1.78 1.779zm3.488-4.629a.638.638 0 1 1-.638-.638.637.637 0 0 1 .638.638zm1.813.648A3.159 3.159 0 0 0 9.779.899 3.18 3.18 0 0 0 7.542.037c-.881-.05-3.523-.05-4.4 0a3.176 3.176 0 0 0-2.237.86 3.17 3.17 0 0 0-.868 2.237c-.05.881-.05 3.523 0 4.4a3.159 3.159 0 0 0 .862 2.237 3.184 3.184 0 0 0 2.237.862c.881.05 3.523.05 4.4 0a3.159 3.159 0 0 0 2.237-.862 3.18 3.18 0 0 0 .862-2.237c.05-.881.05-3.521 0-4.4zM9.505 8.484A1.8 1.8 0 0 1 8.49 9.499a11.766 11.766 0 0 1-3.147.214 11.857 11.857 0 0 1-3.147-.214 1.8 1.8 0 0 1-1.015-1.015 11.766 11.766 0 0 1-.217-3.146 11.857 11.857 0 0 1 .214-3.147 1.8 1.8 0 0 1 1.015-1.015A11.766 11.766 0 0 1 5.34.962a11.857 11.857 0 0 1 3.147.214 1.8 1.8 0 0 1 1.018 1.015 11.765 11.765 0 0 1 .214 3.147 11.759 11.759 0 0 1-.214 3.146z"/>
</svg>
