<svg xmlns="http://www.w3.org/2000/svg" width="11.759" height="18.814" viewBox="0 0 11.759 18.814">
    <defs>
        <style>
            .cls-1{fill:#47b804}
        </style>
    </defs>
    <path id="Icon_metro-location" d="M14.234 1.928a5.879 5.879 0 0 0-5.879 5.879c0 5.879 5.879 12.935 5.879 12.935s5.879-7.055 5.879-12.935a5.879 5.879 0 0 0-5.879-5.879zm0 9.481a3.6 3.6 0 1 1 3.6-3.6 3.6 3.6 0 0 1-3.6 3.6zm-2.278-3.6a2.278 2.278 0 1 1 2.278 2.278 2.278 2.278 0 0 1-2.278-2.28z" class="cls-1" data-name="Icon metro-location" transform="translate(-8.355 -1.928)"/>
</svg>
