<svg xmlns="http://www.w3.org/2000/svg" width="12.197" height="9.914" viewBox="0 0 12.197 9.914">
    <path d="M12.174 1.181a5.082 5.082 0 0 1-1.436.394 2.52 2.52 0 0 0 1.1-1.384 5.165 5.165 0 0 1-1.589.6 2.5 2.5 0 0 0-4.326 1.708 2.559 2.559 0 0 0 .065.571A7.082 7.082 0 0 1 .833.465a2.45 2.45 0 0 0-.338 1.258 2.5 2.5 0 0 0 1.112 2.081 2.492 2.492 0 0 1-1.132-.313v.031A2.5 2.5 0 0 0 2.48 5.975a2.523 2.523 0 0 1-1.124.043A2.509 2.509 0 0 0 3.7 7.755a5.015 5.015 0 0 1-3.1 1.07 5.307 5.307 0 0 1-.6-.034 7.113 7.113 0 0 0 3.841 1.123 7.063 7.063 0 0 0 7.114-7.108c0-.106 0-.213-.008-.32A5.049 5.049 0 0 0 12.2 1.191z"/>
</svg>
